File Name

Date Night 2010 BRRip H264.mp4

File Size
Format : MPEG-4
Format profile : Base Media
Codec ID : isom
File size : 1.83 GiB
Duration : 1h 41mn
Overall bit rate : 2 579 Kbps

Video
ID : 1
Format : AVC
Format/Info : Advanced Video Codec
Format profile : High@L4.1
Format settings, CABAC : Yes
Format settings, ReFrames : 3 frames
Codec ID : avc1
Codec ID/Info : Advanced Video Coding
Duration : 1h 41mn
Bit rate mode : Variable
Bit rate : 1 999 Kbps
Maximum bit rate : 9 928 Kbps
Width : 1 280 pixels
Height : 544 pixels
Display aspect ratio : 2.35:1
Frame rate mode : Constant
Frame rate : 23.976 fps
Resolution : 24 bits
Colorimetry : 4:2:0
Scan type : Progressive
Bits/(Pixel*Frame) : 0.120
Stream size : 1.42 GiB (77%)

Audio #1
ID : 2
Format : AAC
Format/Info : Advanced Audio Codec
Format version : Version 4
Format profile : LC
Format settings, SBR : No
Codec ID : 40
Duration : 1h 41mn
Bit rate mode : Variable
Bit rate : 128 Kbps
Maximum bit rate : 134 Kbps
Channel(s) : 2 channels
Channel positions : L R
Sampling rate : 48.0 KHz
Resolution : 16 bits
Stream size : 93.0 MiB (5%)

Audio #2
ID : 3
Format : AAC
Format/Info : Advanced Audio Codec
Format version : Version 4
Format profile : LC
Format settings, SBR : No
Codec ID : 40
Duration : 1h 41mn
Bit rate mode : Variable
Bit rate : 448 Kbps
Maximum bit rate : 460 Kbps
Channel(s) : 6 channels
Channel positions : Front: L C R, Rear: L R, LFE
Sampling rate : 48.0 KHz
Resolution : 16 bits
Stream size : 325 MiB (17%)

Text
ID : 4
Format : Timed text
Codec ID : tx3g
Duration : 1h 41mn
Bit rate mode : Variable
Bit rate : 103 bps
Stream size : 76.4 KiB (0%)

English SRT : External

Language : English


 
http://www.imdb.com/title/tt1279935/

Release Date: 9 April 2010 (USA) 

Genre: Comedy | Crime | Romance 

Plot: In New York City, a case of mistaken identity turns a bored married couple's attempt at a glamorous and romantic evening into something more thrilling and dangerous.

Cast: 
Steve Carell ... Phil Foster
Tina Fey ... Claire Foster
Mark Wahlberg ... Holbrooke
Taraji P. Henson ... Detective Arroyo
Jimmi Simpson ... Armstrong
Common ... Collins
William Fichtner ... DA Frank Crenshaw
Leighton Meester ... Katy
Kristen Wiig ... Haley Sullivan
Mark Ruffalo ... Brad Sullivan
James Franco ... Taste
Mila Kunis ... Whippit
Bill Burr ... Detective Walsh
Jonathan Morgan Heit ... Oliver Foster
Savannah Paige Rae ... Charlotte Foster (as Savannah Argenti)